{
	"animations":[{
		"samplers":[{
			"input":4,
			"interpolation":"LINEAR",
			"output":5
		},
		{
			"input":6,
			"interpolation":"LINEAR",
			"output":7
		}],
		"channels":[{
			"sampler":0,
			"target":{
				"node":1,
				"path":"translation"
			}
		},
		{
			"sampler":1,
			"target":{
				"node":1,
				"path":"rotation"
			}
		}]
	}],
	"asset":{
		"version":"2.0",
		"generator":"Maxon Cinema 4D 2024.5.1 (#200000219)"
	},
	"scenes":[{
		"nodes":[0,
		1]
	}],
	"nodes":[{
		"name":"Torus",
		"mesh":0
	},
	{
		"name":"Platonic",
		"mesh":1,
		"translation":[0.0,
		1.3900434970855713,
		0.0],
		"rotation":[0.0,
		0.0,
		0.0,
		-1.0],
		"scale":[1.0,
		1.0,
		1.0]
	}],
	"meshes":[{
		"name":"Torus",
		"primitives":[{
			"attributes":{
				"POSITION":1
			},
			"indices":0,
			"material":0
		}]
	},
	{
		"name":"Platonic",
		"primitives":[{
			"attributes":{
				"POSITION":3
			},
			"indices":2,
			"material":1
		}]
	}],
	"accessors":[{
		"bufferView":0,
		"type":"SCALAR",
		"count":3072,
		"componentType":5123,
		"byteOffset":0,
		"min":[0],
		"max":[511]
	},
	{
		"bufferView":1,
		"type":"VEC3",
		"count":512,
		"componentType":5126,
		"byteOffset":0,
		"min":[-2.7512612342834474,
		-0.5,
		-2.7512612342834474],
		"max":[2.7512612342834474,
		0.5,
		2.7512612342834474]
	},
	{
		"bufferView":2,
		"type":"SCALAR",
		"count":60,
		"componentType":5123,
		"byteOffset":0,
		"min":[0],
		"max":[11]
	},
	{
		"bufferView":3,
		"type":"VEC3",
		"count":12,
		"componentType":5126,
		"byteOffset":0,
		"min":[-0.8506521582603455,
		-0.8506521582603455,
		-0.8506521582603455],
		"max":[0.8506521582603455,
		0.8506521582603455,
		0.8506521582603455]
	},
	{
		"bufferView":4,
		"type":"SCALAR",
		"count":2,
		"componentType":5126,
		"byteOffset":0,
		"min":[0.0],
		"max":[3.0]
	},
	{
		"bufferView":4,
		"type":"VEC3",
		"count":2,
		"componentType":5126,
		"byteOffset":8,
		"min":[0.0,
		-2.4999563694000246,
		0.0],
		"max":[0.0,
		1.3900434970855713,
		0.0]
	},
	{
		"bufferView":5,
		"type":"SCALAR",
		"count":2,
		"componentType":5126,
		"byteOffset":0,
		"min":[0.0],
		"max":[3.0]
	},
	{
		"bufferView":5,
		"type":"VEC4",
		"count":2,
		"componentType":5126,
		"byteOffset":8,
		"min":[0.0,
		-0.723472535610199,
		0.0,
		-1.0],
		"max":[0.027531569823622705,
		0.0,
		0.6855226755142212,
		-0.0767347663640976]
	}],
	"bufferViews":[{
		"buffer":0,
		"byteOffset":0,
		"byteLength":6144,
		"target":34963
	},
	{
		"buffer":0,
		"byteOffset":6144,
		"byteLength":6144,
		"target":34962
	},
	{
		"buffer":1,
		"byteOffset":0,
		"byteLength":120,
		"target":34963
	},
	{
		"buffer":1,
		"byteOffset":120,
		"byteLength":144,
		"target":34962
	},
	{
		"buffer":2,
		"byteOffset":0,
		"byteLength":32
	},
	{
		"buffer":2,
		"byteOffset":32,
		"byteLength":40
	}],
	"buffers":[{
		"uri":"data:application/octet-stream;base64,",
		"byteLength":12288
	},
	{
		"uri":"data:application/octet-stream;base64,",
		"byteLength":264
	},
	{
		"uri":"data:application/octet-stream;base64,",
		"byteLength":72
	}],
	"materials":[{
		"pbrMetallicRoughness":{
			"baseColorFactor":[0.21404114365577699,
			0.21404114365577699,
			0.21404114365577699,
			1.0],
			"metallicFactor":0.0,
			"roughnessFactor":0.20000000298023225
		},
		"emissiveFactor":[0.0,
		0.0,
		0.0],
		"alphaMode":"OPAQUE",
		"doubleSided":false,
		"name":"Mat.1"
	},
	{
		"pbrMetallicRoughness":{
			"baseColorFactor":[0.8,
			0.8,
			0.8,
			1.0],
			"metallicFactor":0.0,
			"roughnessFactor":0.5
		},
		"emissiveFactor":[0.0,
		0.0,
		0.0],
		"alphaMode":"OPAQUE",
		"doubleSided":false,
		"name":"Mat"
	}]
}